<?xml version="1.0"?>
<!DOCTYPE svg PUBLIC "-//W3C//DTD SVG 1.1//EN" "http://www.w3.org/Graphics/SVG/1.1/DTD/svg11.dtd">
<svg width="101.99999999999997mm" height="9.500000000000165mm" viewBox="0 0 101.99999999999997 9.500000000000165" xmlns="http://www.w3.org/2000/svg" version="1.1">
<g id="Chamfer004" transform="translate(51.000000,1.000000) scale(1,-1)">
<path id="Chamfer004_f0000"  d="M 43.99999999999997 -1.000000000000078 L 43.99999999999998 -4.5000000000000755 L -43.99999999999998 -4.500000000000077 L -43.99999999999998 -1.0000000000000782 L 43.99999999999997 -1.000000000000078 Z " stroke="#191919" stroke-width="0.35 px" style="stroke-width:0.35;stroke-miterlimit:4;stroke-dasharray:none;fill:#dddddd;fill-opacity:1.0;fill-rule: evenodd "/>
<path id="Chamfer004_f0001"  d="M 49.99999999999997 -1.0000000000000624 L 49.99999999999998 -4.500000000000062 M 49.99999999999997 -4.50000000000006 L 43.99999999999998 -4.5000000000000755 L 43.99999999999998 -1.0000000000000782 M 43.99999999999997 -1.000000000000078 L 49.99999999999997 -1.0000000000000633 Z " stroke="#191919" stroke-width="0.35 px" style="stroke-width:0.35;stroke-miterlimit:4;stroke-dasharray:none;fill:#dddddd;fill-opacity:1.0;fill-rule: evenodd "/>
<path id="Chamfer004_f0002"  d="M -44.000000000000014 -7.716050021144838e-14 L -44.000000000000014 -1.0000000000000782 L 43.99999999999997 -1.000000000000078 L 43.99999999999997 -7.505107646466057e-14 L -44.000000000000014 -7.727152251391088e-14 Z " stroke="#191919" stroke-width="0.35 px" style="stroke-width:0.35;stroke-miterlimit:4;stroke-dasharray:none;fill:#dddddd;fill-opacity:1.0;fill-rule: evenodd "/>
<path id="Chamfer004_f0003"  d="M 43.99999999999998 -7.5000000000000675 L 43.99999999999998 -4.500000000000075 L -43.99999999999998 -4.500000000000077 L -43.99999999999998 -7.5000000000000675 L 43.99999999999998 -7.500000000000066 Z " stroke="#191919" stroke-width="0.35 px" style="stroke-width:0.35;stroke-miterlimit:4;stroke-dasharray:none;fill:#dddddd;fill-opacity:1.0;fill-rule: evenodd "/>
<path id="Chamfer004_f0004"  d="M -44.000000000000014 -1.0000000000000782 L -43.99999999999998 -4.500000000000077 M -43.99999999999998 -4.5000000000000755 L -49.99999999999997 -4.50000000000006 L -49.99999999999997 -1.0000000000000635 M -49.99999999999997 -1.0000000000000633 L -43.99999999999997 -1.000000000000078 Z " stroke="#191919" stroke-width="0.35 px" style="stroke-width:0.35;stroke-miterlimit:4;stroke-dasharray:none;fill:#dddddd;fill-opacity:1.0;fill-rule: evenodd "/>
<path id="Chamfer004_f0005"  d="M 43.99999999999997 -7.482903185973555e-14 L 43.99999999999997 -1.000000000000078 M 43.99999999999997 -1.000000000000078 L 49.99999999999997 -1.0000000000000633 L 48.99999999999997 -6.444844657949032e-14 M 48.99999999999997 -6.350475700855892e-14 L 43.99999999999997 -7.571721027943564e-14 Z " stroke="#191919" stroke-width="0.35 px" style="stroke-width:0.35;stroke-miterlimit:4;stroke-dasharray:none;fill:#dddddd;fill-opacity:1.0;fill-rule: evenodd "/>
<path id="Chamfer004_f0006"  d="M 46.99999999999997 -7.50000000000006 L 49.99999999999997 -4.50000000000006 M 49.99999999999997 -4.50000000000006 L 43.99999999999998 -4.5000000000000755 L 43.99999999999998 -7.500000000000066 M 43.99999999999998 -7.500000000000066 L 46.99999999999998 -7.500000000000059 Z " stroke="#191919" stroke-width="0.35 px" style="stroke-width:0.35;stroke-miterlimit:4;stroke-dasharray:none;fill:#dddddd;fill-opacity:1.0;fill-rule: evenodd "/>
<path id="Chamfer004_f0007"  d="M 49.99999999999997 -0.9999999999999364 L 49.99999999999997 -4.499999999999933 L 49.99999999999998 -4.500000000000062 L 49.99999999999997 -1.0000000000000635 L 49.99999999999997 -0.9999999999999364 Z " stroke="#191919" stroke-width="0.35 px" style="stroke-width:0.35;stroke-miterlimit:4;stroke-dasharray:none;fill:#dddddd;fill-opacity:1.0;fill-rule: evenodd "/>
<path id="Chamfer004_f0008"  d="M -43.99999999999997 7.693845560652334e-14 L 44.000000000000014 7.693845560652334e-14 M 43.99999999999997 7.571721027943564e-14 L 48.99999999999997 6.350475700855892e-14 L 48.99999999999997 -6.444844657949032e-14 M 48.99999999999997 -6.350475700855892e-14 L 43.99999999999997 -7.571721027943564e-14 L -44.000000000000014 -7.727152251391088e-14 M -43.99999999999997 -7.571721027943564e-14 L -48.99999999999997 -6.350475700855892e-14 L -48.99999999999998 5.75095526755831e-14 M -48.99999999999997 6.350475700855892e-14 L -43.99999999999997 7.571721027943564e-14 Z M 45.49999999999999 -3.1641356201816955e-14 L -45.49999999999999 -3.1641356201816955e-14 L -45.49999999999999 3.1641356201816955e-14 L 45.49999999999999 3.1641356201816955e-14 L 45.49999999999999 -3.1641356201816955e-14 Z " stroke="#191919" stroke-width="0.35 px" style="stroke-width:0.35;stroke-miterlimit:4;stroke-dasharray:none;fill:#dddddd;fill-opacity:1.0;fill-rule: evenodd "/>
<path id="Chamfer004_f0009"  d="M -48.99999999999997 -6.261657858885883e-14 L -49.99999999999997 -1.0000000000000633 M -49.99999999999997 -1.0000000000000633 L -43.99999999999997 -1.000000000000078 L -44.000000000000014 -7.727152251391088e-14 M -43.99999999999997 -7.571721027943564e-14 L -48.99999999999997 -6.350475700855892e-14 Z " stroke="#191919" stroke-width="0.35 px" style="stroke-width:0.35;stroke-miterlimit:4;stroke-dasharray:none;fill:#dddddd;fill-opacity:1.0;fill-rule: evenodd "/>
<path id="Chamfer004_f0010"  d="M 46.99999999999997 -7.4999999999999325 L 46.99999999999998 -7.5000000000000595 M 46.99999999999997 -7.500000000000059 L 43.99999999999998 -7.500000000000066 L -43.99999999999998 -7.5000000000000675 M -43.99999999999998 -7.500000000000066 L -46.99999999999997 -7.500000000000059 L -46.99999999999997 -7.499999999999925 M -46.99999999999997 -7.499999999999932 L -43.99999999999998 -7.499999999999925 L 43.99999999999998 -7.499999999999927 M 43.99999999999998 -7.499999999999925 L 46.99999999999997 -7.499999999999932 Z M -39.14999999999999 -7.499999999999953 L -39.14999999999998 -7.499999999999905 M -39.14999999999996 -7.4999999999999325 L -41.65499999999999 -7.4999999999999325 M -41.65499999999999 -7.4999999999999325 L -39.14999999999997 -7.499999999999937 L -39.14999999999998 -7.500000000000025 M -39.149999999999956 -7.500000000000055 L -41.65499999999999 -7.500000000000057 M -41.65499999999999 -7.500000000000057 L -39.14999999999996 -7.500000000000056 L -39.149999999999984 -7.50000000000004 L 39.14999999999999 -7.50000000000004 L 39.14999999999998 -7.500000000000088 M 39.15 -7.500000000000056 L 41.65499999999998 -7.500000000000057 M 41.65499999999998 -7.500000000000057 L 39.14999999999999 -7.500000000000054 L 39.14999999999998 -7.499999999999968 M 39.14999999999999 -7.499999999999936 L 41.65499999999998 -7.4999999999999325 M 41.65499999999998 -7.4999999999999325 L 39.14999999999999 -7.4999999999999325 L 39.149999999999984 -7.499999999999951 L -39.14999999999999 -7.499999999999953 Z " stroke="#191919" stroke-width="0.35 px" style="stroke-width:0.35;stroke-miterlimit:4;stroke-dasharray:none;fill:#dddddd;fill-opacity:1.0;fill-rule: evenodd "/>
<path id="Chamfer004_f0011"  d="M -43.99999999999998 -7.500000000000069 L -43.99999999999998 -4.500000000000076 M -43.99999999999998 -4.5000000000000755 L -49.99999999999997 -4.50000000000006 L -46.99999999999997 -7.5000000000000595 M -46.99999999999998 -7.500000000000059 L -43.99999999999998 -7.500000000000066 Z " stroke="#191919" stroke-width="0.35 px" style="stroke-width:0.35;stroke-miterlimit:4;stroke-dasharray:none;fill:#dddddd;fill-opacity:1.0;fill-rule: evenodd "/>
<path id="Chamfer004_f0012"  d="M -49.99999999999997 -1.0000000000000633 L -49.99999999999997 -4.50000000000006 L -49.99999999999997 -4.499999999999927 L -49.99999999999997 -0.9999999999999365 L -49.99999999999997 -1.0000000000000633 Z " stroke="#191919" stroke-width="0.35 px" style="stroke-width:0.35;stroke-miterlimit:4;stroke-dasharray:none;fill:#dddddd;fill-opacity:1.0;fill-rule: evenodd "/>
<path id="Chamfer004_f0013"  d="M 48.99999999999997 -6.433742427702782e-14 L 49.99999999999997 -1.0000000000000624 L 49.99999999999997 -0.9999999999999364 L 48.99999999999997 6.417089082333404e-14 L 48.99999999999997 -6.444844657949032e-14 Z " stroke="#191919" stroke-width="0.35 px" style="stroke-width:0.35;stroke-miterlimit:4;stroke-dasharray:none;fill:#dddddd;fill-opacity:1.0;fill-rule: evenodd "/>
<path id="Chamfer004_f0014"  d="M 46.99999999999997 -7.499999999999934 L 49.99999999999997 -4.499999999999933 L 49.99999999999998 -4.500000000000062 L 46.99999999999998 -7.5000000000000595 L 46.99999999999997 -7.4999999999999325 Z " stroke="#191919" stroke-width="0.35 px" style="stroke-width:0.35;stroke-miterlimit:4;stroke-dasharray:none;fill:#dddddd;fill-opacity:1.0;fill-rule: evenodd "/>
<path id="Chamfer004_f0015"  d="M 44.000000000000014 -0.999999999999923 L 43.99999999999998 -4.49999999999992 M 43.99999999999998 -4.499999999999919 L 49.99999999999997 -4.499999999999933 L 49.99999999999997 -0.9999999999999365 M 49.99999999999997 -0.9999999999999364 L 43.99999999999997 -0.9999999999999217 Z " stroke="#191919" stroke-width="0.35 px" style="stroke-width:0.35;stroke-miterlimit:4;stroke-dasharray:none;fill:#dddddd;fill-opacity:1.0;fill-rule: evenodd "/>
<path id="Chamfer004_f0016"  d="M 44.000000000000014 7.69939667577546e-14 L 44.000000000000014 -0.999999999999923 L -43.99999999999997 -0.9999999999999217 L -43.99999999999997 7.693845560652334e-14 L 44.000000000000014 7.693845560652334e-14 Z " stroke="#191919" stroke-width="0.35 px" style="stroke-width:0.35;stroke-miterlimit:4;stroke-dasharray:none;fill:#dddddd;fill-opacity:1.0;fill-rule: evenodd "/>
<path id="Chamfer004_f0017"  d="M -43.99999999999997 7.69939667577546e-14 L -43.99999999999997 -0.999999999999923 M -43.99999999999997 -0.9999999999999217 L -49.99999999999997 -0.9999999999999364 L -48.99999999999998 5.75095526755831e-14 M -48.99999999999997 6.350475700855892e-14 L -43.99999999999997 7.571721027943564e-14 Z " stroke="#191919" stroke-width="0.35 px" style="stroke-width:0.35;stroke-miterlimit:4;stroke-dasharray:none;fill:#dddddd;fill-opacity:1.0;fill-rule: evenodd "/>
<path id="Chamfer004_f0018"  d="M 48.99999999999997 6.428191312579656e-14 L 49.99999999999997 -0.9999999999999364 M 49.99999999999997 -0.9999999999999364 L 43.99999999999997 -0.9999999999999217 L 44.000000000000014 7.693845560652334e-14 M 43.99999999999997 7.571721027943564e-14 L 48.99999999999997 6.350475700855892e-14 Z " stroke="#191919" stroke-width="0.35 px" style="stroke-width:0.35;stroke-miterlimit:4;stroke-dasharray:none;fill:#dddddd;fill-opacity:1.0;fill-rule: evenodd "/>
<path id="Chamfer004_f0019"  d="M -48.99999999999998 5.756506382681437e-14 L -49.99999999999998 -0.9999999999999405 L -49.99999999999997 -1.0000000000000633 L -48.99999999999997 -6.283862319378385e-14 L -48.99999999999998 5.75095526755831e-14 Z " stroke="#191919" stroke-width="0.35 px" style="stroke-width:0.35;stroke-miterlimit:4;stroke-dasharray:none;fill:#dddddd;fill-opacity:1.0;fill-rule: evenodd "/>
<path id="Chamfer004_f0020"  d="M 45.50000000000001 3.1641356201816955e-14 L -45.49999999999999 3.1641356201816955e-14 L -45.49999999999999 -1.999999999999968 L 45.49999999999999 -1.999999999999968 L 45.49999999999999 3.1641356201816955e-14 Z " stroke="#191919" stroke-width="0.35 px" style="stroke-width:0.35;stroke-miterlimit:4;stroke-dasharray:none;fill:#dddddd;fill-opacity:1.0;fill-rule: evenodd "/>
<path id="Chamfer004_f0021"  d="M 45.49999999999999 -3.164135620181697e-14 L 45.49999999999999 3.1641356201816955e-14 L 45.49999999999999 -1.999999999999968 L 45.49999999999999 -2.000000000000031 L 45.49999999999999 -3.1641356201816955e-14 Z " stroke="#191919" stroke-width="0.35 px" style="stroke-width:0.35;stroke-miterlimit:4;stroke-dasharray:none;fill:#dddddd;fill-opacity:1.0;fill-rule: evenodd "/>
<path id="Chamfer004_f0022"  d="M -45.50000000000001 -3.1641356201816955e-14 L 45.49999999999999 -3.1641356201816955e-14 L 45.49999999999999 -2.000000000000031 L -45.49999999999999 -2.000000000000031 L -45.49999999999999 -3.1641356201816955e-14 Z " stroke="#191919" stroke-width="0.35 px" style="stroke-width:0.35;stroke-miterlimit:4;stroke-dasharray:none;fill:#dddddd;fill-opacity:1.0;fill-rule: evenodd "/>
<path id="Chamfer004_f0023"  d="M -45.49999999999999 3.164135620181697e-14 L -45.49999999999999 -3.1641356201816955e-14 L -45.49999999999999 -2.000000000000031 L -45.49999999999999 -1.999999999999968 L -45.49999999999999 3.1641356201816955e-14 Z " stroke="#191919" stroke-width="0.35 px" style="stroke-width:0.35;stroke-miterlimit:4;stroke-dasharray:none;fill:#dddddd;fill-opacity:1.0;fill-rule: evenodd "/>
<path id="Chamfer004_f0024"  d="M -46.99999999999997 -7.50000000000006 L -49.99999999999997 -4.50000000000006 L -49.99999999999997 -4.499999999999927 L -46.99999999999997 -7.499999999999925 L -46.99999999999997 -7.500000000000058 Z " stroke="#191919" stroke-width="0.35 px" style="stroke-width:0.35;stroke-miterlimit:4;stroke-dasharray:none;fill:#dddddd;fill-opacity:1.0;fill-rule: evenodd "/>
<path id="Chamfer004_f0025"  d="M 43.99999999999998 -7.499999999999927 L 43.99999999999998 -4.499999999999918 M 43.99999999999998 -4.499999999999919 L 49.99999999999997 -4.499999999999933 L 46.99999999999997 -7.4999999999999325 M 46.99999999999998 -7.499999999999932 L 43.99999999999998 -7.4999999999999245 Z " stroke="#191919" stroke-width="0.35 px" style="stroke-width:0.35;stroke-miterlimit:4;stroke-dasharray:none;fill:#dddddd;fill-opacity:1.0;fill-rule: evenodd "/>
<path id="Chamfer004_f0026"  d="M -46.99999999999997 -7.499999999999926 L -49.99999999999997 -4.499999999999927 M -49.99999999999997 -4.499999999999933 L -43.99999999999998 -4.499999999999919 L -43.99999999999998 -7.499999999999925 M -43.99999999999998 -7.4999999999999245 L -46.99999999999998 -7.499999999999932 Z " stroke="#191919" stroke-width="0.35 px" style="stroke-width:0.35;stroke-miterlimit:4;stroke-dasharray:none;fill:#dddddd;fill-opacity:1.0;fill-rule: evenodd "/>
<path id="Chamfer004_f0027"  d="M -43.99999999999998 -7.499999999999927 L -43.99999999999998 -4.499999999999919 L 43.99999999999998 -4.49999999999992 L 43.99999999999998 -7.499999999999927 L -43.99999999999998 -7.499999999999925 Z " stroke="#191919" stroke-width="0.35 px" style="stroke-width:0.35;stroke-miterlimit:4;stroke-dasharray:none;fill:#dddddd;fill-opacity:1.0;fill-rule: evenodd "/>
<path id="Chamfer004_f0028"  d="M 41.65499999999998 -5.29999999999999 M 41.65499999999998 -5.299999999999989 L 41.65499999999998 -5.299999999999989 L 41.65499999999998 -7.499999999999924 M 41.65499999999998 -7.4999999999999325 L 39.14999999999999 -7.499999999999937 Q 37.80499999999992 -6.154999999999914 39.149999999999956 -7.499999999999943 M 39.14999999999999 -7.4999999999999325 L 41.65499999999998 -7.4999999999999325 Z " stroke="#191919" stroke-width="0.35 px" style="stroke-width:0.35;stroke-miterlimit:4;stroke-dasharray:none;fill:#dddddd;fill-opacity:1.0;fill-rule: evenodd "/>
<path id="Chamfer004_f0029"  d="M 38.149999999999984 -6.499999999999962 L 39.149999999999984 -7.49999999999996 L 39.149999999999984 -7.499999999999953 Q 37.80499999999992 -6.154999999999914 39.149999999999956 -7.499999999999954 L 39.149999999999984 -7.500000000000073 Q 37.80499999999982 -6.154999999999932 39.14999999999997 -7.500000000000075 L 39.149999999999984 -7.500000000000089 L 38.14999999999999 -6.500000000000041 L 38.149999999999984 -6.499999999999956 Z " stroke="#191919" stroke-width="0.35 px" style="stroke-width:0.35;stroke-miterlimit:4;stroke-dasharray:none;fill:#dddddd;fill-opacity:1.0;fill-rule: evenodd "/>
<path id="Chamfer004_f0030"  d="M 41.65499999999998 -7.500000000000065 M 41.65499999999998 -7.500000000000057 L 39.15 -7.500000000000056 Q 37.80499999999982 -6.154999999999932 39.14999999999997 -7.50000000000006 M 39.14999999999999 -7.500000000000054 L 41.65499999999998 -7.500000000000057 L 41.65499999999998 -5.300000000000013 M 41.65499999999998 -5.300000000000013 L 41.65499999999998 -5.300000000000013 Z " stroke="#191919" stroke-width="0.35 px" style="stroke-width:0.35;stroke-miterlimit:4;stroke-dasharray:none;fill:#dddddd;fill-opacity:1.0;fill-rule: evenodd "/>
<path id="Chamfer004_f0031"  d="M 38.149999999999956 -6.500000000000068 L 39.14999999999995 -7.500000000000068 L -39.149999999999984 -7.500000000000042 L -38.14999999999999 -6.500000000000041 L 38.14999999999999 -6.500000000000041 Z " stroke="#191919" stroke-width="0.35 px" style="stroke-width:0.35;stroke-miterlimit:4;stroke-dasharray:none;fill:#dddddd;fill-opacity:1.0;fill-rule: evenodd "/>
<path id="Chamfer004_f0032"  d="M -38.14999999999999 -6.500000000000048 L -39.149999999999984 -7.500000000000048 L -39.149999999999984 -7.50000000000004 Q -37.80499999999988 -6.154999999999932 -39.14999999999996 -7.500000000000014 L -39.149999999999984 -7.49999999999992 Q -37.80499999999997 -6.154999999999909 -39.14999999999996 -7.499999999999894 L -39.149999999999984 -7.499999999999904 L -38.14999999999999 -6.499999999999957 L -38.14999999999999 -6.500000000000041 Z " stroke="#191919" stroke-width="0.35 px" style="stroke-width:0.35;stroke-miterlimit:4;stroke-dasharray:none;fill:#dddddd;fill-opacity:1.0;fill-rule: evenodd "/>
<path id="Chamfer004_f0033"  d="M -41.65499999999999 -5.300000000000003 M -41.65499999999999 -5.300000000000003 L -41.65499999999999 -5.300000000000003 L -41.65499999999999 -7.500000000000064 M -41.65499999999999 -7.500000000000057 L -39.149999999999956 -7.500000000000055 Q -37.80499999999988 -6.154999999999932 -39.14999999999996 -7.5000000000000275 M -39.14999999999996 -7.500000000000057 L -41.65499999999999 -7.500000000000057 Z " stroke="#191919" stroke-width="0.35 px" style="stroke-width:0.35;stroke-miterlimit:4;stroke-dasharray:none;fill:#dddddd;fill-opacity:1.0;fill-rule: evenodd "/>
<path id="Chamfer004_f0034"  d="M -41.65499999999999 -7.499999999999926 M -41.65499999999999 -7.4999999999999325 L -39.149999999999956 -7.4999999999999325 Q -37.80499999999997 -6.15499999999991 -39.14999999999996 -7.499999999999909 M -39.14999999999997 -7.499999999999937 L -41.65499999999999 -7.4999999999999325 L -41.65499999999999 -5.29999999999998 M -41.65499999999999 -5.29999999999998 L -41.65499999999999 -5.29999999999998 Z " stroke="#191919" stroke-width="0.35 px" style="stroke-width:0.35;stroke-miterlimit:4;stroke-dasharray:none;fill:#dddddd;fill-opacity:1.0;fill-rule: evenodd "/>
<path id="Chamfer004_f0035"  d="M -38.15 -6.499999999999941 L -39.14999999999999 -7.49999999999994 L 39.149999999999984 -7.499999999999953 L 38.149999999999984 -6.499999999999956 L -38.14999999999999 -6.499999999999957 Z " stroke="#191919" stroke-width="0.35 px" style="stroke-width:0.35;stroke-miterlimit:4;stroke-dasharray:none;fill:#dddddd;fill-opacity:1.0;fill-rule: evenodd "/>
<path id="Chamfer004_f0036"  d="M -49.99999999999998 -0.9999999999999405 L -49.99999999999997 -4.499999999999927 M -49.99999999999997 -4.499999999999933 L -43.99999999999998 -4.499999999999919 L -43.99999999999998 -0.9999999999999218 M -43.99999999999997 -0.9999999999999217 L -49.99999999999997 -0.9999999999999364 Z " stroke="#191919" stroke-width="0.35 px" style="stroke-width:0.35;stroke-miterlimit:4;stroke-dasharray:none;fill:#dddddd;fill-opacity:1.0;fill-rule: evenodd "/>
<path id="Chamfer004_f0037"  d="M -43.99999999999997 -0.999999999999923 L -43.99999999999998 -4.499999999999919 L 43.99999999999998 -4.49999999999992 L 43.99999999999998 -0.9999999999999218 L -43.99999999999997 -0.9999999999999217 Z " stroke="#191919" stroke-width="0.35 px" style="stroke-width:0.35;stroke-miterlimit:4;stroke-dasharray:none;fill:#dddddd;fill-opacity:1.0;fill-rule: evenodd "/>
<path id="Chamfer004_f0038"  d="M -45.49999999999999 -1.999999999999968 L 45.49999999999999 -1.999999999999968 L 45.49999999999999 -2.000000000000031 L -45.49999999999999 -2.000000000000031 L -45.49999999999999 -1.999999999999968 Z M 41.65499999999998 -2.0000000000000284 M 41.65499999999998 -2.0000000000000275 L 41.65499999999998 -2.0000000000000275 Z M 39.249999999999986 -2.0000000000000306 L 39.249999999999986 -1.999999999999968 L -39.249999999999986 -1.999999999999968 L -39.249999999999986 -2.0000000000000306 L 39.249999999999986 -2.0000000000000306 Z M -41.65499999999999 -2.0000000000000284 M -41.65499999999999 -2.0000000000000275 L -41.65499999999999 -2.0000000000000275 Z M -41.65499999999999 -1.999999999999971 M -41.65499999999999 -1.9999999999999711 L -41.65499999999999 -1.9999999999999711 Z M 41.65499999999998 -1.999999999999971 M 41.65499999999998 -1.9999999999999711 L 41.65499999999998 -1.9999999999999711 Z " stroke="#191919" stroke-width="0.35 px" style="stroke-width:0.35;stroke-miterlimit:4;stroke-dasharray:none;fill:#dddddd;fill-opacity:1.0;fill-rule: evenodd "/>
<path id="Chamfer004_f0039"  d="M 41.65499999999998 -5.29999999999999 M 41.65499999999998 -5.299999999999989 L 41.65499999999998 -5.299999999999989 L 41.65499999999998 -1.999999999999971 M 41.65499999999998 -1.9999999999999711 L 41.65499999999998 -1.9999999999999711 Z " stroke="#191919" stroke-width="0.35 px" style="stroke-width:0.35;stroke-miterlimit:4;stroke-dasharray:none;fill:#dddddd;fill-opacity:1.0;fill-rule: evenodd "/>
<path id="Chamfer004_f0040"  d="M 38.149999999999984 -5.9999999999990905 L 38.149999999999984 -6.4999999999990905 L 38.149999999999984 -6.500000000000086 L 38.14999999999998 -6.000000000000028 L 38.14999999999998 -5.999999999999962 Z " stroke="#191919" stroke-width="0.35 px" style="stroke-width:0.35;stroke-miterlimit:4;stroke-dasharray:none;fill:#dddddd;fill-opacity:1.0;fill-rule: evenodd "/>
<path id="Chamfer004_f0041"  d="M 41.65499999999998 -5.300000000000013 M 41.65499999999998 -5.300000000000013 L 41.65499999999998 -5.300000000000013 L 41.65499999999998 -2.0000000000000284 M 41.65499999999998 -2.0000000000000275 L 41.65499999999998 -2.0000000000000275 Z " stroke="#191919" stroke-width="0.35 px" style="stroke-width:0.35;stroke-miterlimit:4;stroke-dasharray:none;fill:#dddddd;fill-opacity:1.0;fill-rule: evenodd "/>
<path id="Chamfer004_f0042"  d="M 38.149999999999984 -5.9999999999990905 L 38.149999999999984 -6.4999999999990905 L -38.14999999999999 -6.500000000000039 L -38.14999999999998 -6.000000000000028 L 38.149999999999984 -6.000000000000035 Z " stroke="#191919" stroke-width="0.35 px" style="stroke-width:0.35;stroke-miterlimit:4;stroke-dasharray:none;fill:#dddddd;fill-opacity:1.0;fill-rule: evenodd "/>
<path id="Chamfer004_f0043"  d="M -38.149999999999984 -5.9999999999990905 L -38.149999999999984 -6.4999999999990905 L -38.149999999999984 -6.499999999999907 L -38.14999999999998 -5.999999999999968 L -38.14999999999998 -6.000000000000035 Z " stroke="#191919" stroke-width="0.35 px" style="stroke-width:0.35;stroke-miterlimit:4;stroke-dasharray:none;fill:#dddddd;fill-opacity:1.0;fill-rule: evenodd "/>
<path id="Chamfer004_f0044"  d="M -41.65499999999999 -5.300000000000003 M -41.65499999999999 -5.300000000000003 L -41.65499999999999 -5.300000000000003 L -41.65499999999999 -2.0000000000000284 M -41.65499999999999 -2.0000000000000275 L -41.65499999999999 -2.0000000000000275 Z " stroke="#191919" stroke-width="0.35 px" style="stroke-width:0.35;stroke-miterlimit:4;stroke-dasharray:none;fill:#dddddd;fill-opacity:1.0;fill-rule: evenodd "/>
<path id="Chamfer004_f0045"  d="M -41.65499999999999 -5.29999999999998 M -41.65499999999999 -5.29999999999998 L -41.65499999999999 -5.29999999999998 L -41.65499999999999 -1.999999999999971 M -41.65499999999999 -1.9999999999999711 L -41.65499999999999 -1.9999999999999711 Z " stroke="#191919" stroke-width="0.35 px" style="stroke-width:0.35;stroke-miterlimit:4;stroke-dasharray:none;fill:#dddddd;fill-opacity:1.0;fill-rule: evenodd "/>
<path id="Chamfer004_f0046"  d="M -38.149999999999984 -5.9999999999990905 L -38.149999999999984 -6.4999999999990905 L 38.14999999999999 -6.499999999999956 L 38.14999999999998 -5.999999999999968 L -38.149999999999984 -5.999999999999962 Z " stroke="#191919" stroke-width="0.35 px" style="stroke-width:0.35;stroke-miterlimit:4;stroke-dasharray:none;fill:#dddddd;fill-opacity:1.0;fill-rule: evenodd "/>
<path id="Chamfer004_f0047"  d="M 39.249999999999986 -6.0000000000000435 L 39.249999999999986 -2.000000000000031 L 39.249999999999986 -1.999999999999968 L 39.249999999999986 -5.999999999999955 L 39.249999999999986 -6.000000000000042 Z " stroke="#191919" stroke-width="0.35 px" style="stroke-width:0.35;stroke-miterlimit:4;stroke-dasharray:none;fill:#dddddd;fill-opacity:1.0;fill-rule: evenodd "/>
<path id="Chamfer004_f0048"  d="M -39.249999999999986 -6.0000000000000435 L -39.249999999999986 -2.000000000000031 L 39.249999999999986 -2.0000000000000306 L 39.249999999999986 -6.000000000000042 L -39.249999999999986 -6.000000000000042 Z " stroke="#191919" stroke-width="0.35 px" style="stroke-width:0.35;stroke-miterlimit:4;stroke-dasharray:none;fill:#dddddd;fill-opacity:1.0;fill-rule: evenodd "/>
<path id="Chamfer004_f0049"  d="M 39.249999999999986 -5.9999999999999565 L 39.249999999999986 -1.9999999999999687 L -39.249999999999986 -1.999999999999968 L -39.249999999999986 -5.999999999999955 L 39.249999999999986 -5.999999999999955 Z " stroke="#191919" stroke-width="0.35 px" style="stroke-width:0.35;stroke-miterlimit:4;stroke-dasharray:none;fill:#dddddd;fill-opacity:1.0;fill-rule: evenodd "/>
<path id="Chamfer004_f0050"  d="M -39.249999999999986 -5.9999999999999565 L -39.249999999999986 -1.9999999999999687 L -39.249999999999986 -2.0000000000000306 L -39.249999999999986 -6.000000000000042 L -39.249999999999986 -5.999999999999955 Z " stroke="#191919" stroke-width="0.35 px" style="stroke-width:0.35;stroke-miterlimit:4;stroke-dasharray:none;fill:#dddddd;fill-opacity:1.0;fill-rule: evenodd "/>
<path id="Chamfer004_f0051"  d="M -39.249999999999986 -5.999999999999955 L 39.249999999999986 -5.999999999999955 L 39.249999999999986 -6.000000000000042 L -39.249999999999986 -6.000000000000042 L -39.249999999999986 -5.999999999999955 Z M -38.14999999999998 -6.000000000000028 L -38.14999999999998 -5.999999999999968 L 38.14999999999998 -5.999999999999968 L 38.14999999999998 -6.000000000000028 L -38.14999999999998 -6.000000000000028 Z " stroke="#191919" stroke-width="0.35 px" style="stroke-width:0.35;stroke-miterlimit:4;stroke-dasharray:none;fill:#dddddd;fill-opacity:1.0;fill-rule: evenodd "/>
<title>b'Chamfer004'</title>
</g>
</svg>